<svg width="354" height="49" viewBox="0 0 354 49" fill="none" xmlns="http://www.w3.org/2000/svg">
<path d="M13 23C33.4574 29.1579 108.468 36 178.023 36C241.441 36 322.134 30.0702 341 25.0526" stroke="#0B51B9" stroke-width="3" stroke-linecap="round" stroke-linejoin="round"/>
<g filter="url(#filter0_f_63_2911)">
<path d="M13 23C33.4574 29.1579 108.468 36 178.023 36C241.441 36 322.134 30.0702 341 25.0526" stroke="url(#paint0_linear_63_2911)" stroke-width="2" stroke-linecap="round" stroke-linejoin="round"/>
</g>
<g filter="url(#filter1_f_63_2911)">
<path d="M313 5L340 20C324.333 24.1667 270.6 32.4 181 32C91.4 31.6 31.6667 23.8333 13 20L42 5H313Z" fill="url(#paint1_linear_63_2911)" fill-opacity="0.5" style="mix-blend-mode:color-dodge"/>
</g>
<defs>
<filter id="filter0_f_63_2911" x="-0.000244141" y="9.99973" width="354" height="39.0003" filterUnits="userSpaceOnUse" color-interpolation-filters="sRGB">
<feFlood flood-opacity="0" result="BackgroundImageFix"/>
<feBlend mode="normal" in="SourceGraphic" in2="BackgroundImageFix" result="shape"/>
<feGaussianBlur stdDeviation="6" result="effect1_foregroundBlur_63_2911"/>
</filter>
<filter id="filter1_f_63_2911" x="8" y="0" width="337" height="37.0141" filterUnits="userSpaceOnUse" color-interpolation-filters="sRGB">
<feFlood flood-opacity="0" result="BackgroundImageFix"/>
<feBlend mode="normal" in="SourceGraphic" in2="BackgroundImageFix" result="shape"/>
<feGaussianBlur stdDeviation="2.5" result="effect1_foregroundBlur_63_2911"/>
</filter>
<linearGradient id="paint0_linear_63_2911" x1="13" y1="29.5" x2="341" y2="29.5" gradientUnits="userSpaceOnUse">
<stop stop-color="#0B51B9"/>
<stop offset="1" stop-color="#3275D9"/>
</linearGradient>
<linearGradient id="paint1_linear_63_2911" x1="177" y1="5" x2="177" y2="42.5" gradientUnits="userSpaceOnUse">
<stop offset="0.11" stop-color="#0B0B0B"/>
<stop offset="0.375" stop-color="#2F3436" stop-opacity="0.7"/>
<stop offset="1" stop-color="#0B51B9"/>
</linearGradient>
</defs>
</svg>
