<svg class="svg-icon" style="width: 1em; height: 1em;vertical-align: middle;fill: currentColor;overflow: hidden;" viewBox="0 0 1024 1024" version="1.1" xmlns="http://www.w3.org/2000/svg"><path d="M165.469091 875.287273c-9.774545 0-19.549091-2.56-28.16-7.912728-13.963636-8.610909-22.341818-23.04-22.341818-38.632727V164.538182c0-15.592727 8.378182-30.021818 22.341818-38.632727 15.592727-9.541818 35.607273-10.472727 51.898182-2.327273l333.730909 165.934545c11.403636 5.818182 16.290909 19.781818 10.472727 31.185455s-19.781818 16.290909-31.185454 10.472727L168.494545 165.236364c-3.025455-1.629091-6.516364-0.232727-7.214545 0.698181l0.465455 662.807273c0.232727-0.465455 1.396364 0 3.258181 0 1.163636 0 2.327273-0.232727 3.490909-0.698182l665.832728-331.403636-224.116364-111.709091c-11.403636-5.818182-16.290909-19.781818-10.472727-31.185454 5.818182-11.403636 19.781818-16.290909 31.185454-10.472728l225.745455 112.174546c16.290909 8.145455 26.298182 23.970909 26.298182 40.96 0 17.221818-10.24 32.814545-26.298182 40.96L189.207273 869.701818c-7.447273 3.723636-15.592727 5.585455-23.738182 5.585455zM836.887273 498.036364z" fill="#040000" /><path d="M242.501818 392.610909c0-23.505455 25.367273-37.934545 45.614546-26.298182l84.945454 49.105455 84.945455 49.105454c20.247273 11.636364 20.247273 40.96 0 52.596364l-84.945455 49.105455-84.945454 49.105454c-20.247273 11.636364-45.614545-3.025455-45.614546-26.298182v-196.421818z" fill="#040000" /></svg>